FILE "King of Fighters '98, The - Dream Match Never Ends Soundtrack (1998)(Pony Canyon)(JP)(Disc 2 of 2)[CD-Audio].img" BINARY
  TRACK 01 AUDIO
    ISRC JPPC09801326
    INDEX 01 00:00:00
  TRACK 02 AUDIO
    ISRC JPPC09801327
    INDEX 00 02:39:10
    INDEX 01 02:42:12
  TRACK 03 AUDIO
    ISRC JPPC09801328
    INDEX 00 05:06:25
    INDEX 01 05:09:17
  TRACK 04 AUDIO
    ISRC JPPC09801329
    INDEX 00 08:19:22
    INDEX 01 08:22:30
  TRACK 05 AUDIO
    ISRC JPPC09801330
    INDEX 00 08:41:37
    INDEX 01 08:43:45
  TRACK 06 AUDIO
    ISRC JPPC09801331
    INDEX 00 09:04:47
    INDEX 01 09:06:52
  TRACK 07 AUDIO
    ISRC JPPC09801332
    INDEX 00 09:36:72
    INDEX 01 09:39:40
  TRACK 08 AUDIO
    ISRC JPPC09801333
    INDEX 00 09:53:52
    INDEX 01 09:55:57
  TRACK 09 AUDIO
    ISRC JPPC09801334
    INDEX 00 10:33:50
    INDEX 01 10:36:17
  TRACK 10 AUDIO
    ISRC JPPC09801335
    INDEX 00 10:45:10
    INDEX 01 10:46:52
  TRACK 11 AUDIO
    ISRC JPPC09801336
    INDEX 00 13:31:55
    INDEX 01 13:34:32
  TRACK 12 AUDIO
    ISRC JPPC09801337
    INDEX 00 13:58:72
    INDEX 01 14:01:40
  TRACK 13 AUDIO
    ISRC JPPC09801338
    INDEX 00 14:14:40
    INDEX 01 14:17:07
  TRACK 14 AUDIO
    ISRC JPPC09801339
    INDEX 00 17:59:72
    INDEX 01 18:04:40
  TRACK 15 AUDIO
    ISRC JPPC09801340
    INDEX 00 20:26:70
    INDEX 01 20:30:25
  TRACK 16 AUDIO
    ISRC JPPC09801341
    INDEX 00 22:27:57
    INDEX 01 22:31:12
  TRACK 17 AUDIO
    ISRC JPPC09801342
    INDEX 00 25:05:55
    INDEX 01 25:09:10
  TRACK 18 AUDIO
    ISRC JPPC09801343
    INDEX 00 27:25:45
    INDEX 01 27:29:00
  TRACK 19 AUDIO
    ISRC JPPC09801344
    INDEX 00 30:02:47
    INDEX 01 30:06:02
  TRACK 20 AUDIO
    ISRC JPPC09801345
    INDEX 00 32:07:22
    INDEX 01 32:10:52
  TRACK 21 AUDIO
    ISRC JPPC09801346
    INDEX 00 34:46:60
    INDEX 01 34:50:15
  TRACK 22 AUDIO
    ISRC JPPC09801347
    INDEX 00 38:24:02
    INDEX 01 38:27:32
  TRACK 23 AUDIO
    ISRC JPPC09801348
    INDEX 00 41:12:22
    INDEX 01 41:15:55
  TRACK 24 AUDIO
    ISRC JPPC09801349
    INDEX 00 44:05:60
    INDEX 01 44:09:15
  TRACK 25 AUDIO
    ISRC JPPC09801350
    INDEX 00 46:18:45
    INDEX 01 46:22:00
  TRACK 26 AUDIO
    ISRC JPPC09801351
    INDEX 00 48:49:32
    INDEX 01 48:52:62
  TRACK 27 AUDIO
    ISRC JPPC09801352
    INDEX 00 50:05:22
    INDEX 01 50:08:52
  TRACK 28 AUDIO
    ISRC JPPC09801353
    INDEX 00 51:12:02
    INDEX 01 51:15:32
  TRACK 29 AUDIO
    ISRC JPPC09801354
    INDEX 00 52:56:50
    INDEX 01 53:01:15
